<svg xmlns="http://www.w3.org/2000/svg">
  <defs>
    <symbol xmlns="http://www.w3.org/2000/svg" id="figma" width="16" height="16" fill="none" viewBox="0 0 16 16">
      <path fill="currentColor" fill-rule="evenodd" d="M5.5 1a2.5 2.5 0 0 0 0 5 2.5 2.5 0 0 0 0 5A2.5 2.5 0 1 0 8 13.5v-5A2.5 2.5 0 1 0 10.5 6a2.5 2.5 0 0 0 0-5h-5Zm5 5A2.5 2.5 0 0 0 8 8.5V6h2.5Z" clip-rule="evenodd"/>
    </symbol>
		
    <symbol xmlns="http://www.w3.org/2000/svg" id="vscode" width="16" height="16" fill="none" viewBox="0 0 16 16">
			<path fill="currentColor" fill-rule="evenodd" d="M15.846 14.462c.1-.158.153-.34.154-.526V3.067a.987.987 0 0 0-.566-.893L12.14.598a1.003 1.003 0 0 0-1.137.192l-6.43 5.822L1.95 4.636a.669.669 0 0 0-.853.037l-.88.794a.658.658 0 0 0 .002.979L2.488 8.5l-2.27 2.055a.66.66 0 0 0-.001.979l.88.794a.668.668 0 0 0 .851.037l2.625-1.976 6.43 5.822a1 1 0 0 0 1.137.191l3.294-1.575a.998.998 0 0 0 .412-.365ZM12 4.795 7.08 8.5 12 12.205v-7.41Z" clip-rule="evenodd"/>
    </symbol>

    <symbol xmlns="http://www.w3.org/2000/svg" id="typescript" width="16" height="16" fill="none" viewBox="0 0 16 16">
      <path fill="currentColor" d="M.75.5a.749.749 0 0 0-.75.75v14.5c0 .415.335.75.75.75h14.5c.415 0 .75-.335.75-.75V1.25a.749.749 0 0 0-.75-.75H.75ZM12.325 7c.408 0 .77.025 1.085.074.297.045.59.12.87.227v1.638a2.634 2.634 0 0 0-.428-.24 3.398 3.398 0 0 0-.478-.174 3.636 3.636 0 0 0-.95-.133c-.2 0-.383.019-.547.057a1.4 1.4 0 0 0-.415.162.8.8 0 0 0-.262.249.591.591 0 0 0-.093.327c0 .13.035.248.104.352.069.104.168.203.295.296.127.094.282.184.464.274.182.09.388.182.617.277.314.131.595.271.844.419a3 3 0 0 1 .642.502c.179.186.315.398.41.638.094.239.142.517.142.835 0 .438-.083.807-.248 1.104a2.023 2.023 0 0 1-.675.723 2.92 2.92 0 0 1-.991.398c-.378.08-.776.12-1.194.12a6.605 6.605 0 0 1-1.226-.11c-.35-.06-.69-.17-1.008-.328v-1.754a3.355 3.355 0 0 0 2.158.8c.222 0 .416-.02.581-.06.166-.04.304-.096.415-.166a.742.742 0 0 0 .249-.254.68.68 0 0 0-.05-.726 1.433 1.433 0 0 0-.357-.333 3.731 3.731 0 0 0-.538-.296 18.616 18.616 0 0 0-.672-.29c-.612-.256-1.068-.569-1.368-.937-.3-.369-.451-.815-.451-1.337 0-.41.082-.76.246-1.055a2.09 2.09 0 0 1 .67-.726c.298-.197.63-.339.98-.419A5.025 5.025 0 0 1 12.325 7ZM2.25 7.125h6.375V8.57H6.337V15H4.526V8.57H2.25V7.124Z"/>
    </symbol>

    <symbol xmlns="http://www.w3.org/2000/svg" id="rust" width="16" height="16" fill="none" viewBox="0 0 16 16">
      <path fill="currentColor" d="m15.893 8.302-.671-.416a9.182 9.182 0 0 0-.02-.196l.578-.538a.237.237 0 0 0-.077-.386l-.738-.276a5.515 5.515 0 0 0-.058-.19l.46-.64a.235.235 0 0 0-.15-.364l-.778-.126a6.118 6.118 0 0 0-.094-.175l.327-.718c.07-.153-.055-.332-.219-.327l-.79.028a4.485 4.485 0 0 0-.125-.152l.182-.769a.236.236 0 0 0-.278-.278l-.77.182a5.88 5.88 0 0 0-.151-.125l.027-.79a.234.234 0 0 0-.326-.22l-.718.328-.175-.094-.127-.779a.237.237 0 0 0-.363-.15l-.64.46a5.64 5.64 0 0 0-.19-.057L9.731.796a.237.237 0 0 0-.386-.077l-.538.578a6.205 6.205 0 0 0-.196-.019L8.196.606a.235.235 0 0 0-.393 0l-.416.672-.195.019-.54-.578a.235.235 0 0 0-.385.077l-.276.738c-.064.018-.127.038-.19.057l-.64-.46a.237.237 0 0 0-.363.15l-.127.78c-.059.03-.117.06-.175.093l-.718-.328a.235.235 0 0 0-.327.22l.028.79c-.051.04-.102.082-.152.125l-.769-.182a.236.236 0 0 0-.278.278l.18.77-.123.15-.79-.027a.235.235 0 0 0-.22.327l.328.718a6.117 6.117 0 0 0-.094.175l-.777.126a.237.237 0 0 0-.151.364l.46.64-.058.19-.738.276a.237.237 0 0 0-.077.386l.578.538a6.2 6.2 0 0 0-.02.196l-.671.416c-.144.087-.141.308 0 .393l.672.416c.005.066.012.131.019.196l-.578.54a.235.235 0 0 0 .077.385l.738.276c.019.064.038.128.058.19l-.46.64c-.1.136-.012.339.151.364l.778.126c.03.059.062.117.094.175l-.328.718a.235.235 0 0 0 .22.327l.789-.028c.04.051.082.102.125.152l-.181.77c-.037.153.125.314.278.278l.769-.181c.05.042.1.083.152.124l-.028.79a.234.234 0 0 0 .327.218l.718-.326c.058.032.116.063.175.093l.127.778c.027.166.23.246.363.152l.64-.46c.062.02.126.039.19.057l.276.738a.235.235 0 0 0 .385.078l.54-.578.195.02.416.672a.236.236 0 0 0 .393 0l.416-.672.196-.02.538.578a.237.237 0 0 0 .386-.078l.276-.738a5.8 5.8 0 0 0 .19-.058l.64.46c.136.1.338.012.363-.15l.127-.779c.058-.03.117-.062.175-.094l.718.327a.236.236 0 0 0 .326-.218l-.027-.79c.051-.04.101-.082.15-.124l.77.18a.236.236 0 0 0 .278-.277l-.18-.77c.041-.05.083-.1.123-.152l.79.028c.159.007.287-.184.22-.327l-.328-.718c.032-.058.064-.116.094-.175l.778-.126a.237.237 0 0 0 .15-.364l-.46-.64.058-.19.739-.276a.235.235 0 0 0 .076-.386l-.577-.539c.007-.065.014-.13.019-.196l.672-.416a.234.234 0 0 0 0-.393Zm-4.87 5.103a.495.495 0 0 1 .48-.47.485.485 0 0 1 .477.47.482.482 0 0 1-.476.484.484.484 0 0 1-.48-.484Zm.146-1.072a.449.449 0 0 0-.515.333l-.238 1.113a5.892 5.892 0 0 1-4.879-.023L5.3 12.643a.448.448 0 0 0-.515-.333l-.982.211a5.817 5.817 0 0 1-.508-.6h4.78c.055 0 .091-.009.091-.058v-1.692c0-.05-.035-.059-.09-.059h-1.4V9.04H8.19c.138 0 .738.039.93.806.06.236.192 1.004.282 1.25.09.275.456.826.846.826.783 0 1.677 0 2.469-.009a5.87 5.87 0 0 1-.542.636l-1.005-.216Zm-6.71.582c.246.005.46.217.465.462a.483.483 0 0 1-.465.488.482.482 0 0 1-.486-.488.488.488 0 0 1 .486-.462ZM2.785 6.7c-.007.256-.211.48-.471.473-.256-.007-.48-.213-.474-.473a.478.478 0 0 1 .474-.471c.256.005.478.213.47.471Zm-.6 1.117 1.024-.455a.45.45 0 0 0 .22-.573l-.21-.476h.829v3.738H2.375a5.853 5.853 0 0 1-.19-2.234Zm4.492-.362V6.354h1.974c.103 0 .72.118.72.58 0 .338-.366.485-.72.515-.647.007-1.322.007-1.974.007Zm7.159 1.426h-.6c-.06 0-.085.039-.085.098v.276c0 .649-.366.79-.686.826-.306.034-.644-.128-.686-.315-.18-1.013-.48-1.23-.954-1.603.588-.374 1.2-.925 1.2-1.663 0-.796-.546-1.298-.918-1.545a2.601 2.601 0 0 0-1.256-.413H3.643a5.846 5.846 0 0 1 3.273-1.848l.732.768a.448.448 0 0 0 .613.014l.818-.783a5.916 5.916 0 0 1 4.005 2.853l-.56 1.266c-.093.21.01.48.22.573l1.079.48c.033.337.039.678.013 1.016ZM7.98 1.917c.258.003.46.2.465.458a.444.444 0 0 1-.465.467.468.468 0 0 1-.457-.467.444.444 0 0 1 .457-.458Zm5.663 4.322a.48.48 0 0 1 .476.475.48.48 0 0 1-.476.475.49.49 0 0 1-.473-.475.482.482 0 0 1 .473-.475Z"/>
    </symbol>

    <symbol xmlns="http://www.w3.org/2000/svg" id="react" width="16" height="16" fill="none" viewBox="0 0 16 16">
      <path fill="currentColor" d="M9.487 8.502c0 .416-.157.815-.437 1.109-.28.294-.658.46-1.053.46a1.45 1.45 0 0 1-1.054-.46 1.612 1.612 0 0 1-.437-1.11c0-.415.157-.814.436-1.109.28-.294.659-.46 1.054-.46s.775.166 1.054.46c.28.294.437.694.437 1.11ZM11.252 1c-.897 0-2.071.674-3.259 1.84-1.186-1.16-2.361-1.826-3.258-1.826-.273 0-.522.065-.737.195-.917.557-1.122 2.29-.649 4.467C1.32 6.336 0 7.39 0 8.502c0 1.116 1.327 2.173 3.362 2.828-.47 2.184-.26 3.921.659 4.477.213.131.46.193.734.193.897 0 2.072-.674 3.259-1.841 1.187 1.16 2.361 1.826 3.258 1.826.273 0 .522-.063.737-.193.916-.556 1.122-2.29.649-4.466C14.68 10.672 16 9.615 16 8.502c0-1.116-1.327-2.174-3.362-2.83.47-2.182.26-3.92-.659-4.477A1.386 1.386 0 0 0 11.252 1Zm-.003.765v.004c.15 0 .27.031.372.09.444.267.636 1.287.486 2.599-.036.322-.094.663-.166 1.01a14.942 14.942 0 0 0-2.072-.375 16.602 16.602 0 0 0-1.356-1.717c1.061-1.038 2.058-1.608 2.736-1.61v-.001Zm-6.514.014c.675 0 1.676.567 2.74 1.6A15.984 15.984 0 0 0 6.13 5.093c-.738.082-1.436.209-2.076.377-.074-.344-.13-.676-.169-.996-.153-1.311.036-2.33.476-2.602a.938.938 0 0 1 .375-.093Zm3.255 2.14c.303.329.607.696.907 1.098A18.769 18.769 0 0 0 8 4.993c-.307 0-.61.007-.907.024.294-.402.597-.769.897-1.098ZM8 5.762c.493 0 .985.024 1.468.065a18.689 18.689 0 0 1 1.467 2.671c-.205.46-.43.92-.675 1.369-.253.463-.515.903-.787 1.312a16.213 16.213 0 0 1-2.941.003 18.883 18.883 0 0 1-1.467-2.67A17.949 17.949 0 0 1 6.527 5.83c.485-.045.977-.07 1.473-.07v.002Zm-2.423.178a18.487 18.487 0 0 0-.893 1.638c-.177-.46-.327-.919-.45-1.366.426-.105.876-.2 1.343-.272Zm4.84 0c.463.073.91.162 1.337.272-.12.443-.27.9-.44 1.356a18.41 18.41 0 0 0-.897-1.628Zm2.042.474c.322.105.629.222.916.35 1.155.519 1.902 1.198 1.902 1.737-.004.539-.75 1.221-1.905 1.737a9.88 9.88 0 0 1-.903.346 17.393 17.393 0 0 0-.734-2.091c.3-.714.54-1.41.724-2.08v.001Zm-8.93.003c.185.674.43 1.373.733 2.091-.3.714-.541 1.41-.724 2.08a9.178 9.178 0 0 1-.913-.35C1.47 9.72.723 9.04.723 8.5c0-.539.747-1.222 1.902-1.737.28-.127.586-.24.904-.347Zm7.785 3.003c.177.461.327.921.45 1.367-.426.11-.877.204-1.343.274a18.346 18.346 0 0 0 .893-1.64Zm-6.63.014c.133.275.273.55.427.825.153.274.31.542.47.802-.464-.072-.91-.161-1.338-.27.12-.443.271-.9.44-1.357h.001Zm7.263 2.097c.074.345.133.679.169.998.153 1.311-.036 2.33-.476 2.602a.685.685 0 0 1-.375.09c-.675 0-1.676-.566-2.74-1.6.457-.505.913-1.078 1.346-1.712.738-.083 1.436-.21 2.076-.379Zm-7.887.006c.64.165 1.337.292 2.071.374.44.635.897 1.212 1.357 1.716-1.063 1.041-2.061 1.61-2.74 1.61a.759.759 0 0 1-.369-.092c-.444-.266-.636-1.287-.486-2.598.036-.323.095-.663.167-1.01Zm3.04.45c.293.014.593.024.897.024.306 0 .61-.007.906-.024a13.28 13.28 0 0 1-.896 1.098c-.304-.33-.607-.697-.907-1.098Z"/>
    </symbol>

    <symbol xmlns="http://www.w3.org/2000/svg" id="tailwind" width="16" height="16" fill="none" viewBox="0 0 16 16">
			<path fill="currentColor" d="M8 4.5c-2.134 0-3.467 1.067-4 3.2.8-1.067 1.733-1.467 2.8-1.2.608.152 1.043.593 1.525 1.083C9.11 8.379 10.017 9.3 12 9.3c2.133 0 3.466-1.067 4-3.2-.8 1.067-1.734 1.467-2.8 1.2-.609-.152-1.044-.593-1.526-1.083C10.89 5.421 9.984 4.5 8 4.5ZM4 9.3c-2.134 0-3.467 1.067-4 3.2.8-1.067 1.733-1.467 2.8-1.2.608.152 1.043.593 1.525 1.083C5.11 13.179 6.017 14.1 8 14.1c2.133 0 3.466-1.067 4-3.2-.8 1.067-1.734 1.467-2.8 1.2-.609-.152-1.044-.593-1.526-1.083C6.89 10.221 5.984 9.3 4 9.3Z"/>
    </symbol>

    <symbol xmlns="http://www.w3.org/2000/svg" id="tauri" width="16" height="17" fill="none" viewBox="0 0 16 17">
			<path fill="currentColor" d="M10.546 12.021a5.822 5.822 0 0 0 4.604-6.575 5.817 5.817 0 0 0-1.396-2.983A5.914 5.914 0 0 0 10.951.715a5.824 5.824 0 0 0-7.125 3.868 6.794 6.794 0 0 1 2.233-.648 4.09 4.09 0 0 1 7.053 4.062 4.089 4.089 0 0 1-2.384 2.182 4.127 4.127 0 0 1-.194 1.842h.012Zm-1.151-4.18a1.524 1.524 0 1 0 0-3.048 1.524 1.524 0 0 0 0 3.049Zm-3.71-2.866a5.823 5.823 0 0 0-4.172 3.317 5.816 5.816 0 0 0 3.74 7.993 5.824 5.824 0 0 0 7.126-3.874 6.792 6.792 0 0 1-2.233.652A4.09 4.09 0 1 1 4.6 7.248c.268-.173.556-.315.857-.421a4.13 4.13 0 0 1 .228-1.852ZM6.82 9.158a1.524 1.524 0 1 0-.001 3.048 1.524 1.524 0 0 0 0-3.048Z"/>
    </symbol>

    <symbol xmlns="http://www.w3.org/2000/svg" id="prisma" width="16" height="16" fill="none" viewBox="0 0 16 16">
			<path fill="currentColor" d="M15.163 12.69 9.66 1.004a.883.883 0 0 0-.752-.502.873.873 0 0 0-.804.416l-5.968 9.667a.904.904 0 0 0 .01.97l2.918 4.52a.938.938 0 0 0 1.054.387l8.467-2.505a.928.928 0 0 0 .583-.504.907.907 0 0 0-.005-.763Zm-1.232.501-7.185 2.125a.301.301 0 0 1-.384-.346L8.93 2.677c.048-.23.366-.266.466-.053l4.753 10.092a.343.343 0 0 1-.217.475Z"/>
    </symbol>
  </defs>
</svg>
